<?xml version="1.0" standalone="no"?>
<!DOCTYPE svg PUBLIC "-//W3C//DTD SVG 20010904//EN"
 "http://www.w3.org/TR/2001/REC-SVG-20010904/DTD/svg10.dtd">
<svg version="1.0" xmlns="http://www.w3.org/2000/svg"
 width="327.000000pt" height="322.000000pt" viewBox="0 0 327.000000 322.000000"
 preserveAspectRatio="xMidYMid meet">

<g transform="translate(0.000000,322.000000) scale(0.100000,-0.100000)"
fill="#000000" stroke="none">
<path d="M1435 3181 c-3 -6 -27 -13 -53 -16 -165 -23 -309 -68 -467 -146 -159
-78 -287 -171 -415 -299 -223 -224 -347 -453 -432 -800 -20 -84 -23 -119 -23
-310 0 -191 3 -225 24 -310 37 -151 70 -247 126 -366 190 -404 535 -700 966
-829 81 -25 88 -25 454 -25 l371 0 109 36 c150 50 261 103 374 178 347 231
585 570 671 956 11 52 25 99 31 106 6 7 8 106 6 260 l-4 249 -37 135 c-58 208
-109 325 -209 475 -193 288 -484 516 -790 618 -94 32 -239 67 -275 67 -15 0
-40 7 -56 15 -22 12 -67 15 -197 15 -94 0 -170 -4 -174 -9z m455 -260 c534
-121 925 -518 1037 -1051 27 -128 24 -412 -5 -537 -57 -242 -132 -396 -279
-575 -196 -236 -450 -388 -783 -465 -108 -25 -373 -24 -495 1 -258 54 -476
166 -661 339 -397 374 -530 899 -358 1412 101 302 326 572 612 736 128 73 328
139 482 159 103 14 353 3 450 -19z"/>
<path d="M799 1951 c-37 -37 -39 -42 -39 -102 l0 -63 383 -384 c210 -211 394
-390 409 -398 35 -18 101 -18 136 0 15 8 195 183 400 388 l372 374 0 66 c0 57
-4 71 -26 97 -14 17 -43 36 -65 42 -78 24 -88 17 -429 -318 -172 -170 -317
-310 -322 -312 -6 -2 -157 143 -337 323 l-327 326 -58 0 c-54 0 -61 -3 -97
-39z"/>
</g>
</svg>
