<?xml version="1.0" standalone="no"?>
<!DOCTYPE svg PUBLIC "-//W3C//DTD SVG 20010904//EN"
 "http://www.w3.org/TR/2001/REC-SVG-20010904/DTD/svg10.dtd">
<svg version="1.0" xmlns="http://www.w3.org/2000/svg"
 width="327.000000pt" height="322.000000pt" viewBox="0 0 327.000000 322.000000"
 preserveAspectRatio="xMidYMid meet">

<g transform="translate(0.000000,322.000000) scale(0.100000,-0.100000)"
fill="#000000" stroke="none">
<path d="M1165 3157 c-27 -11 -98 -40 -157 -65 -301 -123 -572 -360 -747 -650
-68 -114 -137 -282 -172 -420 -16 -64 -34 -121 -39 -126 -14 -14 -13 -522 1
-548 6 -11 22 -65 35 -120 109 -450 422 -835 849 -1043 143 -70 253 -107 397
-135 65 -13 115 -26 113 -30 -6 -10 379 -8 386 2 3 4 43 14 90 23 323 56 623
214 859 455 209 212 342 454 421 765 33 129 33 132 33 360 l-1 230 -36 135
c-56 212 -119 355 -224 515 -192 290 -473 507 -813 629 -41 15 -79 31 -85 36
-6 5 -201 9 -435 8 -406 0 -427 -1 -475 -21z m738 -198 c267 -54 499 -180 697
-379 193 -193 313 -414 370 -680 32 -149 33 -400 2 -547 -118 -551 -517 -949
-1072 -1069 -65 -14 -127 -18 -265 -18 -158 0 -194 4 -290 26 -214 51 -374
125 -535 248 -544 418 -698 1189 -352 1765 303 506 882 769 1445 654z"/>
<path d="M1173 1858 c-427 -426 -425 -425 -403 -507 19 -71 94 -112 177 -96
32 6 80 49 328 293 159 158 305 302 323 320 18 17 36 32 40 32 4 0 155 -148
337 -330 l331 -330 60 0 c68 0 103 19 129 70 20 38 19 109 -1 140 -24 36 -722
737 -768 771 -33 25 -48 29 -100 29 l-60 0 -393 -392z"/>
</g>
</svg>
