<?xml version="1.0" encoding="UTF-8" standalone="no"?>
<svg
   xmlns:dc="http://purl.org/dc/elements/1.1/"
   xmlns:cc="http://creativecommons.org/ns#"
   xmlns:rdf="http://www.w3.org/1999/02/22-rdf-syntax-ns#"
   xmlns:svg="http://www.w3.org/2000/svg"
   xmlns="http://www.w3.org/2000/svg"
   xmlns:sodipodi="http://sodipodi.sourceforge.net/DTD/sodipodi-0.dtd"
   xmlns:inkscape="http://www.inkscape.org/namespaces/inkscape"
   version="1.1"
   id="svg833"
   width="466"
   height="509"
   viewBox="0 0 466 509"
   sodipodi:docname="linkedin_logo.svg"
   inkscape:version="1.0.2-2 (e86c870879, 2021-01-15)">
  <metadata
     id="metadata839">
    <rdf:RDF>
      <cc:Work
         rdf:about="">
        <dc:format>image/svg+xml</dc:format>
        <dc:type
           rdf:resource="http://purl.org/dc/dcmitype/StillImage" />
        <dc:title></dc:title>
      </cc:Work>
    </rdf:RDF>
  </metadata>
  <defs
     id="defs837" />
  <sodipodi:namedview
     pagecolor="#ffffff"
     bordercolor="#666666"
     borderopacity="1"
     objecttolerance="10"
     gridtolerance="10"
     guidetolerance="10"
     inkscape:pageopacity="0"
     inkscape:pageshadow="2"
     inkscape:window-width="1920"
     inkscape:window-height="1001"
     id="namedview835"
     showgrid="false"
     inkscape:zoom="0.81532417"
     inkscape:cx="281.10545"
     inkscape:cy="235.74928"
     inkscape:window-x="-9"
     inkscape:window-y="-9"
     inkscape:window-maximized="1"
     inkscape:current-layer="g841" />
  <g
     inkscape:groupmode="layer"
     inkscape:label="Image"
     id="g841">
    <path
       style="fill:#000000"
       d="m 36.608235,481.27178 c -1.654316,-0.96966 -1.75,-9.21783 -1.75,-150.85361 0,-125.45991 0.222262,-150.01232 1.366594,-150.96203 0.979889,-0.81324 12.502656,-1.06011 40.720723,-0.87245 l 39.354128,0.26173 1.26454,2.5 c 1.00225,1.98146 1.26454,32.88653 1.26454,149 0,116.11347 -0.26229,147.01854 -1.26454,149 l -1.26454,2.5 -38.970723,0.22605 c -25.239802,0.14641 -39.587316,-0.13535 -40.720722,-0.79969 z M 115.61543,330.84542 c 0.24028,-138.25623 0.1454,-148.0823 -1.44112,-149.25 -2.39656,-1.76391 -74.354897,-1.81118 -76.116075,-0.05 -0.922428,0.92243 -1.2,35.13738 -1.2,147.91821 0,80.69502 0.275155,147.43526 0.611455,148.31164 0.547281,1.42619 4.666761,1.56597 39.25,1.33179 l 38.63855,-0.26164 z m 47.89779,149.67126 c -1.52435,-1.68438 -1.65499,-13.55238 -1.65499,-150.34501 0,-142.61016 0.0727,-148.58209 1.82875,-150.17126 1.63065,-1.47572 5.74314,-1.65499 37.96482,-1.65499 34.70321,0 36.17712,0.0767 37.17125,1.93426 0.60747,1.13505 1.03518,9.64241 1.03518,20.5898 v 18.65554 l 3.84523,-4.8398 c 14.88021,-18.72897 38.03676,-33.86165 59.15477,-38.65733 5.97702,-1.35732 42.29112,-1.31238 48,0.0594 8.99081,2.16039 14.57366,4.01666 18.11299,6.02249 1.98715,1.12616 4.6807,2.65239 5.98564,3.3916 5.8906,3.33687 17.00918,12.33566 23.50907,19.027 7.20049,7.41257 12.54991,15.35309 16.41026,24.3589 4.2923,10.01354 5.16886,11.99362 6.05349,13.67435 0.82722,1.57165 1.39128,3.55104 3.92793,13.78379 0.47722,1.925 1.33684,5.3 1.91028,7.5 0.69124,2.65189 1.05068,39.94157 1.06649,110.64301 0.0215,96.33598 -0.12903,106.70168 -1.55793,107.25 -2.83407,1.08753 -75.40112,0.68651 -77.48395,-0.42819 -1.88793,-1.01039 -1.93574,-3.0402 -1.99608,-84.75 -0.0584,-79.01988 -0.42282,-92.74423 -2.68872,-101.24939 -2.16156,-8.11351 -7.63565,-17.52009 -13.66492,-23.48155 -5.5269,-5.46475 -7.00102,-6.32139 -16.08454,-9.347 -8.79899,-2.93084 -10.90075,-3.27177 -17.5,-2.83872 -16.47051,1.08083 -25.27593,4.76067 -35,14.62671 -6.70111,6.79894 -13,17.69848 -13,22.49507 0,1.35412 -0.40247,2.71076 -0.89437,3.01478 -2.0582,1.27203 -2.40425,13.1294 -2.75726,94.47624 -0.2633,60.67316 -0.69252,85.79879 -1.48195,86.75 -0.89345,1.07653 -8.70249,1.33904 -39.83388,1.33904 -36.2438,0 -38.82851,-0.11706 -40.37756,-1.82874 z m 78.62712,-86.92126 c 0.2905,-79.11104 0.45324,-86.17582 2.10199,-91.25 0.98291,-3.025 2.17201,-7.05478 2.64245,-8.95506 1.68826,-6.8196 6.5853,-14.65709 13.47345,-21.56361 10.79053,-10.81932 17.08066,-13.29494 36,-14.16859 10.11932,-0.46729 11.64943,-0.21042 24,4.02901 10.72994,3.68314 22.01483,17.54535 25.74408,31.62368 2.30777,8.71209 2.65708,21.43876 2.71822,99.03457 0.0358,45.375 0.33775,83.51786 0.6711,84.76191 l 0.60609,2.26191 37.63026,-0.26191 37.63025,-0.26191 v -106 c 0,-85.38242 -0.25918,-106.87527 -1.33251,-110.5 -0.73288,-2.475 -1.82178,-6.3 -2.41979,-8.5 -1.23744,-4.55241 -4.88668,-14.08499 -7.65634,-20 -7.42838,-15.86435 -11.44684,-21.69545 -21.49306,-31.18812 -14.0669,-13.29181 -29.47513,-21.7029 -45.5983,-24.89132 -6.21608,-1.22926 -36.21499,-1.60557 -37.352,-0.46856 -0.57639,0.5764 -2.3222,1.048 -3.87955,1.048 -6.42466,0 -23.27179,7.34214 -35.19119,15.33667 -7.42125,4.97755 -20.62067,17.49426 -25.75874,24.42645 -3.38165,4.56245 -4.16174,5.12356 -5.85974,4.21481 -1.84408,-0.98691 -1.95878,-2.21109 -1.95878,-20.90612 0,-17.18526 -0.21288,-19.93952 -1.58179,-20.46482 -0.86998,-0.33385 -16.52998,-0.60699 -34.8,-0.60699 -24.50305,0 -33.53304,0.31483 -34.41821,1.2 -0.9225,0.9225 -1.2,35.34074 -1.2,148.83333 0,81.19834 0.30001,147.93334 0.66668,148.3 0.36666,0.36667 17.68428,0.66667 38.48361,0.66667 h 37.81694 z M 62.343542,133.97611 C 52.614568,130.32716 38.770503,117.63582 34.875578,108.79526 33.676154,106.07285 32.170554,102.94542 31.5298,101.84542 30.822862,100.6318 30.23055,93.646504 30.023375,84.079736 29.622108,65.550325 30.711518,60.602567 37.451084,50.345421 43.723426,40.799357 50.0508,35.269623 59.569436,31.015348 c 7.369667,-3.293811 9.081487,-3.669927 16.702947,-3.669927 4.67046,0 9.75042,0.510727 11.288799,1.134949 16.960808,6.882114 24.170608,12.889517 30.184758,25.150773 2.21601,4.517853 4.72282,10.548832 5.57069,13.402175 1.66652,5.608277 2.16896,24.806341 0.67341,25.730641 -0.47751,0.295115 -1.15317,2.684172 -1.50147,5.309017 -0.78575,5.921594 -9.08742,20.389304 -14.39085,25.079634 -4.34505,3.84275 -13.206645,9.15196 -18.239485,10.92775 -4.329222,1.52753 -23.35619,1.45544 -27.514693,-0.10425 z m 30.941663,-4.56789 c 9.642385,-4.70258 15.607325,-10.26019 21.261445,-19.80956 5.20954,-8.79851 6.64274,-14.868527 6.67093,-28.253239 0.0245,-11.610304 -0.98774,-16.466459 -5.36678,-25.74808 C 110.58398,44.434038 101.88155,36.905995 88.332255,31.792387 78.223979,27.977449 71.070953,28.5341 59.808411,34.01212 50.580626,38.50045 44.53227,44.056798 38.592831,53.501906 c -5.345622,8.500797 -6.734596,14.35699 -6.734596,28.394399 0,11.529861 0.208738,12.854853 3.25,20.629825 2.61351,6.68143 4.50796,9.64244 9.673303,15.11926 11.39949,12.08691 18.650552,15.63868 32.003664,15.67629 7.799297,0.022 9.028277,-0.26952 16.500003,-3.91346 z"
       id="path845" />
    <path
       style="fill:#d38d5f;fill-rule:evenodd;stroke:#000000;stroke-width:1.22651"
       d="m 165.81389,330.87588 c 0,-116.84874 0.32041,-147.92178 1.53313,-148.67946 2.09423,-1.30842 47.81137,-2.13134 59.18679,-1.06538 l 9.19092,0.86126 0.0107,13.69355 c 0.0131,16.83014 1.10856,26.60768 3.06519,27.35851 0.81501,0.31275 7.7694,-5.72929 15.4542,-13.42674 15.17898,-15.20398 25.20953,-22.02984 39.74398,-27.04605 17.55234,-6.05776 26.32459,-6.87228 47.67298,-4.42654 19.78536,2.26668 37.44713,11.94412 54.37755,29.79516 9.56151,10.08142 17.6797,24.77305 24.51596,44.36692 l 3.4234,9.81205 0.34718,108.2572 0.34718,108.25719 -37.13998,-0.32466 -37.13999,-0.32467 -0.80739,-87.08193 c -0.50935,-54.93609 -1.30406,-89.5721 -2.15286,-93.82771 -4.38312,-21.97565 -20.80099,-37.54392 -42.13917,-39.95849 -8.53866,-0.96621 -25.46478,1.29721 -32.29524,4.31865 -7.01206,3.10177 -18.92315,14.9754 -22.89936,22.82734 -7.77309,15.34978 -7.46384,11.36021 -8.26602,106.64021 -0.40323,47.89506 -0.84095,87.21991 -0.9727,87.38855 -0.13175,0.16865 -17.07334,0.30663 -37.64798,0.30663 h -37.40843 z"
       id="path847" />
    <path
       style="fill:#d38d5f;fill-rule:evenodd;stroke:#000000;stroke-width:1.22651"
       d="m 38.525394,476.45108 c -1.243187,-3.02745 -1.104282,-293.01445 0.140952,-294.2593 1.291518,-1.29112 73.867744,-1.35804 75.156254,-0.0693 1.54981,1.55009 2.08099,98.90135 1.09764,201.17014 l -0.91638,95.30485 H 76.705319 c -34.368981,0 -37.367766,-0.16858 -38.179925,-2.14639 z"
       id="path849" />
    <path
       style="fill:#d38d5f;fill-rule:evenodd;stroke:#000000;stroke-width:1.22651"
       d="M 65.096013,131.02948 C 54.454479,127.22673 42.227639,115.9083 37.194662,105.2011 30.59277,91.156176 30.559226,71.627448 37.113961,58.218289 43.791963,44.55696 56.139467,34.476236 70.679087,30.815118 c 7.649863,-1.926258 19.072501,1.09663 28.872505,7.640822 8.164838,5.452269 12.309088,10.43365 16.959838,20.385679 3.01361,6.448755 3.28915,8.317317 3.29839,22.3679 0.01,14.678467 -0.15519,15.680191 -3.87121,23.523901 -5.25462,11.09136 -12.34013,18.45224 -22.798124,23.68416 -7.100907,3.55244 -9.917088,4.29578 -16.106448,4.25136 -4.12548,-0.0296 -9.497592,-0.76737 -11.938025,-1.63946 z"
       id="path851" />
  </g>
</svg>
