<?xml version="1.0" standalone="no"?>
<!DOCTYPE svg PUBLIC "-//W3C//DTD SVG 20010904//EN"
 "http://www.w3.org/TR/2001/REC-SVG-20010904/DTD/svg10.dtd">
<svg version="1.0" xmlns="http://www.w3.org/2000/svg"
 width="506.000000pt" height="578.000000pt" viewBox="0 0 506.000000 578.000000"
 preserveAspectRatio="xMidYMid meet">

<g transform="translate(0.000000,578.000000) scale(0.100000,-0.100000)"
fill="#000000" stroke="none">
<path d="M2435 5589 c-188 -29 -362 -90 -490 -172 -278 -176 -470 -437 -551
-746 -32 -119 -37 -234 -41 -790 -3 -388 -7 -569 -15 -578 -7 -9 -40 -13 -110
-13 -59 0 -121 -6 -151 -15 -130 -38 -232 -154 -263 -300 -19 -88 -19 -2003 0
-2090 26 -119 102 -220 207 -277 l44 -23 1512 -3 c1510 -2 1512 -2 1567 19 77
28 152 100 196 185 l35 69 3 1050 c2 781 0 1064 -9 1105 -22 105 -131 222
-239 258 l-64 22 -1117 0 c-1003 0 -1119 2 -1133 16 -14 14 -16 78 -16 562 0
591 0 589 57 762 39 117 70 165 181 281 97 102 154 144 255 191 67 31 234 68
307 68 91 0 244 -41 345 -93 113 -59 249 -191 320 -312 106 -180 125 -267 125
-576 0 -196 2 -224 19 -257 41 -80 100 -112 206 -112 107 0 159 28 199 107 14
27 16 73 16 306 0 150 -5 300 -11 333 -30 171 -114 383 -191 485 -18 24 -42
58 -52 74 -11 17 -61 70 -110 118 -204 197 -434 308 -716 347 -78 11 -245 10
-315 -1z m293 -3115 c112 -61 162 -142 162 -257 0 -96 -20 -151 -75 -207 l-44
-45 -3 -240 c-3 -227 -4 -242 -25 -275 -29 -47 -77 -81 -123 -87 -53 -7 -84 2
-125 39 -64 55 -65 62 -65 318 l0 231 -46 49 c-25 27 -54 71 -65 99 -21 56
-25 145 -9 203 15 54 83 133 143 168 47 27 61 30 140 30 76 0 95 -4 135 -26z"/>
</g>
</svg>
