<?xml version="1.0" encoding="UTF-8" standalone="no"?>
<svg
   xmlns:osb="http://www.openswatchbook.org/uri/2009/osb"
   xmlns:dc="http://purl.org/dc/elements/1.1/"
   xmlns:cc="http://creativecommons.org/ns#"
   xmlns:rdf="http://www.w3.org/1999/02/22-rdf-syntax-ns#"
   xmlns:svg="http://www.w3.org/2000/svg"
   xmlns="http://www.w3.org/2000/svg"
   xmlns:sodipodi="http://sodipodi.sourceforge.net/DTD/sodipodi-0.dtd"
   xmlns:inkscape="http://www.inkscape.org/namespaces/inkscape"
   version="1.1"
   id="svg10"
   width="1200"
   height="987"
   viewBox="0 0 1200 987"
   sodipodi:docname="twitter_logo.svg"
   inkscape:version="1.0.2-2 (e86c870879, 2021-01-15)">
  <metadata
     id="metadata16">
    <rdf:RDF>
      <cc:Work
         rdf:about="">
        <dc:format>image/svg+xml</dc:format>
        <dc:type
           rdf:resource="http://purl.org/dc/dcmitype/StillImage" />
        <dc:title></dc:title>
      </cc:Work>
    </rdf:RDF>
  </metadata>
  <defs
     id="defs14">
    <linearGradient
       id="linearGradient3053"
       osb:paint="solid">
      <stop
         style="stop-color:#000000;stop-opacity:1;"
         offset="0"
         id="stop3051" />
    </linearGradient>
  </defs>
  <sodipodi:namedview
     pagecolor="#ffffff"
     bordercolor="#666666"
     borderopacity="1"
     objecttolerance="10"
     gridtolerance="10"
     guidetolerance="10"
     inkscape:pageopacity="0"
     inkscape:pageshadow="2"
     inkscape:window-width="1920"
     inkscape:window-height="1001"
     id="namedview12"
     showgrid="false"
     inkscape:zoom="0.42046606"
     inkscape:cx="563.70983"
     inkscape:cy="581.01995"
     inkscape:window-x="-9"
     inkscape:window-y="-9"
     inkscape:window-maximized="1"
     inkscape:current-layer="g18" />
  <g
     inkscape:groupmode="layer"
     inkscape:label="Image"
     id="g18">
    <path
       style="opacity:1;fill-opacity:1;stroke:#000000;stroke-opacity:1;fill-rule:evenodd;fill:#ffe6d5"
       d="M 364.5,965.9416 C 280.56488,962.83277 193.2123,942.39448 114.63563,907.47969 102.63405,902.1469 75.643809,888.71542 65,882.77891 53.971905,876.62807 35.937033,865.70713 35.416368,864.86468 c -1.178737,-1.90724 2.522382,-0.67095 8.14246,2.71982 47.469168,28.63966 108.166742,55.32001 159.941172,70.30407 40.71819,11.78426 89.81007,20.87502 130,24.0732 7.7,0.61274 17.825,1.53495 22.5,2.04937 11.59579,1.27593 67.3949,1.28148 78.5,0.008 4.95,-0.56774 16.95557,-1.7158 26.67904,-2.55126 98.22432,-8.43959 190.96004,-37.54154 274.82096,-86.24319 27.4857,-15.96213 68.08919,-44.96276 94.49388,-67.49129 15.06066,-12.84979 51.98407,-49.53793 65.1483,-64.7332 29.05564,-33.53847 55.86685,-70.88789 77.73813,-108.29329 33.09529,-56.6013 60.26529,-123.71984 76.03779,-187.83748 13.7881,-56.05078 21.3626,-122.08219 20.3401,-177.31689 l -0.2582,-13.94766 8,-6.36824 c 22.9299,-18.25286 28.706,-23.38894 48.5981,-43.21261 21.2933,-21.22001 33.7771,-35.38674 47.606,-54.02383 7.1496,-9.63542 11.2959,-14.1451 11.2959,-12.28583 0,1.22725 -11.9388,17.81198 -20.3621,28.28583 -23.4543,29.16411 -53.8402,58.84777 -83.9158,81.97642 -9.0426,6.95386 -9.7221,7.7227 -9.7217,11 0.01,74.61567 -2.8944,106.49649 -15.1188,166.02358 -8.5247,41.51106 -23.5493,89.07724 -41.4602,131.25889 C 967.56609,668.60662 892.03362,765.90765 798.64647,836.22042 692.92074,915.82311 567.74644,959.351 425.5,965.97771 c -23.03249,1.07299 -31.1858,1.06817 -61,-0.0361 z M 53,863.96178 c -19.503159,-1.40909 -20.074359,-1.83479 -1.5,-1.1179 58.28083,2.24938 99.39257,-1.60634 149,-13.97417 59.16453,-14.75054 116.98343,-42.08024 167.5,-79.1735 11.25487,-8.26422 10.43635,-7.5932 9.90748,-8.12207 -0.23422,-0.23422 -6.01542,-0.94008 -12.8471,-1.56859 C 315.66705,755.46146 270.99233,737.63786 233.61404,707.56323 208.98761,687.74877 185.12605,658.04346 170.48976,628.97966 165.40269,618.87809 159,602.35886 159,599.33556 v -2.62424 l 7.25,0.62343 c 3.9875,0.34288 11.525,1.07064 16.75,1.61724 22.43737,2.34723 52.05805,-0.15582 77.54609,-6.55291 3.56541,-0.89487 2.14339,-1.61613 -8.54609,-4.33465 -31.94712,-8.1247 -64.4367,-24.46576 -90.98161,-45.76039 C 117.40067,507.3134 86.343456,453.80057 76.978563,397.5 c -2.304546,-13.85464 -3.862753,-40.49993 -2.36843,-40.5001 0.489427,-5e-5 0.889867,3.71245 0.889867,8.25 0,9.38863 0.505264,14.04491 3.482967,32.09748 12.146599,73.63972 61.998903,139.6934 130.343643,172.70369 12.81871,6.1914 30.48156,12.78247 42.67339,15.92402 2.475,0.63775 6.1875,1.5966 8.25,2.13077 2.67889,0.69382 3.75,1.51462 3.75,2.87367 0,1.04634 -0.44761,2.17907 -0.99469,2.51719 -2.14632,1.32649 -26.18741,5.44656 -38.43416,6.58669 -13.99576,1.30295 -44.18801,0.73279 -55.90419,-1.05571 -3.75818,-0.5737 -7.19348,-0.82033 -7.634,-0.54807 -1.06376,0.65744 5.48774,16.86388 11.99325,29.66771 10.32835,20.32773 20.97433,35.81008 36.13912,52.55674 40.75874,45.0104 94.84398,71.75289 156.33467,77.29983 14.1667,1.27794 14.5,1.36668 14.5,3.86016 0,3.45086 -28.16864,23.29973 -55.51687,39.11964 C 265.29573,835.22136 202.74702,855.2197 132,862.52523 c -17.88866,1.84724 -62.170635,2.65247 -79,1.43655 z M 159,384.49349 c -21.73625,-2.66966 -47.27845,-9.76757 -68.138973,-18.93513 -11.049814,-4.85606 -14.756843,-6.99588 -13.791693,-7.96103 0.311404,-0.3114 6.160696,1.96438 12.998427,5.0573 21.076349,9.53349 39.658479,14.92821 69.932239,20.30257 3.575,0.63465 9.75555,1.18313 13.73456,1.21883 3.97901,0.0357 6.98995,0.4607 6.69099,0.94444 -0.72634,1.17524 -8.63661,0.94376 -21.42555,-0.62698 z m 16.90207,-3.77509 c -1.42886,-1.22012 -6.37886,-5.20158 -11,-8.84768 C 124.13728,339.70706 94.236634,292.46536 82.070187,241 76.331814,216.72607 74.439242,182.5316 77.448688,157.5 80.639127,130.96296 87.868842,105.72157 98.93041,82.5 103.85165,72.168826 108,65.799819 108,68.575349 108,69.02648 105.11652,75.26908 101.59227,82.447794 88.544554,109.02531 81.974106,132.62328 78.189385,166.5 c -1.501915,13.44352 -0.793988,34.62479 1.754673,52.5 5.740291,40.25993 23.172252,80.81016 48.701772,113.29007 8.56071,10.89136 31.61897,33.43733 42.60417,41.65763 5.3625,4.01279 9.75,7.69116 9.75,8.17414 0,1.54782 -2.42289,0.8808 -5.09793,-1.40344 z M 588,315.86666 C 533.36614,311.627 498.21961,305.77409 453.36066,293.44534 338.89994,261.98766 237.7306,203.31338 153.4348,119.5 138.55295,104.70331 113.69649,77.518803 110.2771,72.300152 c -0.80582,-1.229836 -1.30063,-2.729568 -1.09957,-3.332738 0.20106,-0.603169 6.93506,6.469911 14.96444,15.717957 C 160.35608,126.39586 209.78262,169.88493 256,200.70364 c 80.0561,53.3831 171.87513,90.18518 262.6979,105.29224 33.5774,5.58512 77.57946,10.12676 79.50062,8.2056 0.56891,-0.56891 0.12178,-5.09761 -1.15815,-11.73004 C 586.10938,245.82831 599.50673,179.94873 632.01271,130.5 656.04522,93.941283 687.76611,65.784451 725.5,47.516662 c 24.08785,-11.66145 41.55889,-17.358539 68,-22.17396 14.25704,-2.596473 62.33159,-2.620896 77,-0.03912 48.85846,8.599551 91.60091,29.747883 125.18041,61.937409 C 1001.2796,92.608447 1006.7033,97 1007.7329,97 c 3.2026,0 28.9664,-6.619845 46.7671,-12.016511 26.8072,-8.127182 57.0269,-20.738694 83.4351,-34.819771 14.3944,-7.675213 17.0649,-8.463164 17.0649,-5.035199 0,5.232982 -15.0603,36.388306 -25.0174,51.753435 -16.3422,25.218426 -44.1149,53.059586 -69.2172,69.387856 -3.1541,2.0516 -6.2467,3.73019 -6.8725,3.73019 -2.0578,0 1.3646,-3.16807 8.1071,-7.50458 22.5642,-14.51243 47.8244,-39.93686 64.8324,-65.253917 7.0594,-10.508236 15.55,-26.292398 21.1087,-39.241503 2.2429,-5.225 4.4972,-10.238985 5.0096,-11.142189 1.529,-2.695236 0.1063,-2.836205 -3.5542,-0.35217 C 1137.5938,54.515204 1090.579,75.474829 1066.5,83.4617 1046.2977,90.162697 1012.2529,99 1006.6404,99 c -1.3483,0 -4.158,-1.994546 -7.17799,-5.095592 C 996.73308,91.101833 990.675,85.553346 986,81.574438 948.95653,50.046622 906.38989,31.586764 856,25.197393 844.66984,23.760743 810.02943,24.444485 799,26.322474 772.10605,30.901727 750.93729,37.627387 727.43789,49.058925 666.64611,78.631744 619.74988,136.13103 603.10746,201.5 c -8.72816,34.28289 -10.15498,64.35146 -4.60754,97.09812 1.37504,8.11693 2.50008,15.11208 2.50008,15.54478 0,1.86587 -4.12332,2.41261 -13,1.72376 z m 465.5622,-143.76601 c -0.2883,-0.46656 3.8547,-1.38591 9.2068,-2.04299 31.9472,-3.9222 73.2438,-14.78751 107.1315,-28.18677 6.8203,-2.69675 12.5968,-4.70687 12.8368,-4.46694 2.5254,2.52546 -38.7116,17.12041 -70.9356,25.1061 -24.0834,5.9683 -57.1163,11.408 -58.2395,9.5906 z"
       id="path24" />
    <path
       style="opacity:1;fill:#d38d5f;fill-opacity:1;fill-rule:evenodd;stroke:#000000;stroke-width:2.37831;stroke-opacity:1"
       d="M 334.17756,960.48035 C 239.38867,950.54688 163.75055,928.43239 83.437066,887.1708 41.283024,865.51388 41.582314,866.41754 76.563591,866.41754 c 97.727389,0 180.705629,-22.59837 260.783119,-71.0219 26.57118,-16.06781 43.233,-29.02922 43.233,-33.6314 0,-2.9946 -4.6769,-4.3774 -22.35864,-6.61066 -36.81636,-4.65001 -76.78013,-19.46293 -106.07027,-39.3159 -15.60697,-10.57845 -46.50023,-41.05577 -58.30758,-57.52255 -9.68022,-13.50023 -29.69001,-50.82146 -29.69001,-55.37629 0,-1.16744 11.23168,-1.6123 25.11588,-0.99482 13.81374,0.61436 34.951,-0.21595 46.97169,-1.84507 35.5713,-4.82094 38.90577,-9.16193 12.93713,-16.84224 -38.62436,-11.4233 -69.74043,-29.78376 -99.8527,-58.91948 -39.37168,-38.09484 -61.565381,-81.4494 -69.763986,-136.28132 -1.978866,-13.2346 -3.135528,-24.52531 -2.570357,-25.09049 0.56517,-0.56516 7.494745,1.6944 15.399057,5.02128 30.920646,13.01432 84.929566,23.64541 88.746866,17.46888 1.17577,-1.90243 -7.19236,-11.42917 -24.02054,-27.34632 C 119.23011,322.27419 98.412693,287.97299 86.888022,242.39306 73.824435,190.72674 77.649453,144.00318 99.098984,93.233044 l 8.639086,-20.448355 16.02337,18.070041 c 57.26462,64.57906 131.17728,120.82574 208.06285,158.33341 77.4541,37.78503 166.9364,62.29826 244.63875,67.01757 l 25.93465,1.57516 -2.10115,-16.43046 c -3.76879,-29.47087 -2.21199,-71.30958 3.5264,-94.77197 21.22431,-86.77899 89.94679,-153.645327 179.99558,-175.134025 28.27412,-6.747164 80.4224,-5.561463 108.09854,2.45785 36.6197,10.610754 70.93317,29.785942 99.59549,55.656351 11.61505,10.483624 13.59945,11.423854 21.45835,10.167156 27.4091,-4.382882 85.0553,-24.720854 119.8415,-42.280878 7.736,-3.905133 14.4624,-6.70333 14.9475,-6.218216 1.6315,1.631416 -12.9059,30.093635 -23.0617,45.151937 -13.1886,19.554995 -39.9592,47.244815 -58.5697,60.580765 -19.0108,13.62282 -19.7362,18.61317 -2.3783,16.36362 23.402,-3.03286 55.3066,-10.47682 82.2889,-19.19961 14.8159,-4.78966 27.4414,-8.20507 28.0566,-7.5898 3.8508,3.85072 -63.2826,74.08777 -92.5082,96.78507 l -13.6753,10.62057 -0.01,27.38193 c -0.017,53.90083 -8.4031,117.95956 -22.5995,172.60982 -61.12987,235.32484 -235.60195,419.0102 -458.26734,482.46684 -77.79984,22.17192 -179.06228,31.81621 -252.8597,24.08253 z"
       id="path3236" />
  </g>
</svg>
